<?xml version="1.0" encoding="utf-8"?>
<!-- Generator: Adobe Illustrator 21.0.0, SVG Export Plug-In . SVG Version: 6.00 Build 0)  -->
<svg version="1.1" id="Слой_1" xmlns="http://www.w3.org/2000/svg" xmlns:xlink="http://www.w3.org/1999/xlink" x="0px" y="0px"
	 viewBox="0 0 423 268" style="enable-background:new 0 0 423 268;" xml:space="preserve">
<path id="_01." style="fill:#C0D2CC;" d="M104.3,51.9c37.8,0,47,49.2,47,82.8c0,34.4-10.7,81.3-47,81.3c-37.1,0-47-46.2-47-82.1
	C57.3,101.2,67.2,51.9,104.3,51.9z M104.3,268c74.9,0,104.3-79.4,104.3-133.6C208.6,87.4,183.8,0,104.3,0S0,87.4,0,134.4
	C0,188.6,29.4,268,104.3,268L104.3,268z M312.6,3.8l-87.5,28.6v39.3h30.2v191.6h57.3V3.8L312.6,3.8z M355.8,234
	c0.1,18.4,15,33.3,33.4,33.2c0.1,0,0.1,0,0.2,0c18.3,0,33.6-14.9,33.6-33.2c0-18.6-15.1-33.6-33.7-33.6
	C370.8,200.5,355.8,215.5,355.8,234z"/>
</svg>
