<svg xmlns="http://www.w3.org/2000/svg" width="515" height="194"><path data-name="404" d="M90.212 158.913v35.072h46.725v-35.072h22.956v-40.2h-22.956V.82h-49.7L.005 120.334v38.579h90.207zm3.781-40.2H47l46.994-64.478v64.478zm86.527-22.122q0-44.514 18.1-70.548T256.42.009q39.429 0 57.662 26.034t18.231 70.548q0 44.787-18.231 70.953t-57.662 26.169q-39.7 0-57.8-26.169t-18.1-70.953zm105.872 0q0-25.627-6.077-39.253t-23.9-13.624q-18.1 0-24.308 13.759t-6.211 39.118q0 25.633 6.211 39.523t24.308 13.894q17.825 0 23.9-13.894t6.077-39.523zm158.928 62.32v35.072h46.724v-35.07H515v-40.2h-22.956V.82h-49.695l-87.236 119.514v38.579h90.207zm3.781-40.2h-46.994L449.1 54.237v64.478z" fill="#f4f4f4" fill-rule="evenodd"/></svg>